<svg width="12" height="15" viewBox="0 0 12 15" fill="none" xmlns="http://www.w3.org/2000/svg">
<path fill-rule="evenodd" clip-rule="evenodd" d="M1.99998 1.83333C1.90793 1.83333 1.83331 1.90795 1.83331 2V13.7903L5.4063 11.6782C5.77249 11.4617 6.22747 11.4617 6.59366 11.6782L10.1666 13.7903V2C10.1666 1.90795 10.092 1.83333 9.99998 1.83333H1.99998ZM0.833313 2C0.833313 1.35567 1.35565 0.833333 1.99998 0.833333H9.99998C10.6443 0.833333 11.1666 1.35567 11.1666 2V14.0824C11.1666 14.7277 10.4648 15.1282 9.90925 14.7998L6.08479 12.539C6.03248 12.5081 5.96748 12.5081 5.91517 12.539L2.09071 14.7998C1.5352 15.1282 0.833313 14.7277 0.833313 14.0824V2Z" fill="white"/>
</svg>
